<svg width="17" height="14" viewBox="0 0 17 14" fill="none" xmlns="http://www.w3.org/2000/svg">
<path d="M8.50006 12C6.94006 12 5.43006 11.39 4.00006 10.2C2.83006 9.20999 2.01006 8.06999 1.63006 7.46999C1.54207 7.33085 1.49536 7.16961 1.49536 7.00499C1.49536 6.84036 1.54207 6.67912 1.63006 6.53999C2.01006 5.93999 2.83006 4.78999 4.00006 3.80999C6.84006 1.41999 10.1501 1.41999 12.9901 3.80999C14.1601 4.79999 14.9801 5.93999 15.3601 6.53999C15.5401 6.82999 15.5401 7.17999 15.3601 7.46999C14.9801 8.06999 14.1601 9.21999 12.9901 10.2C11.5701 11.4 10.0601 12 8.49006 12H8.50006ZM2.53006 6.99999C2.90006 7.56999 3.63006 8.56999 4.65006 9.42999C7.12006 11.51 9.88006 11.51 12.3501 9.42999C13.3701 8.56999 14.1001 7.55999 14.4701 6.99999C14.1001 6.42999 13.3701 5.42999 12.3501 4.56999C9.88006 2.48999 7.12006 2.48999 4.65006 4.56999C3.63006 5.42999 2.90006 6.43999 2.53006 6.99999Z" fill="#EFFF00"/>
<path d="M8.5 9.5C7.83696 9.5 7.20107 9.23661 6.73223 8.76777C6.26339 8.29893 6 7.66304 6 7C6 6.33696 6.26339 5.70107 6.73223 5.23223C7.20107 4.76339 7.83696 4.5 8.5 4.5C9.16304 4.5 9.79893 4.76339 10.2678 5.23223C10.7366 5.70107 11 6.33696 11 7C11 7.66304 10.7366 8.29893 10.2678 8.76777C9.79893 9.23661 9.16304 9.5 8.5 9.5ZM8.5 5.5C7.67 5.5 7 6.17 7 7C7 7.83 7.67 8.5 8.5 8.5C9.33 8.5 10 7.83 10 7C10 6.17 9.33 5.5 8.5 5.5Z" fill="#EFFF00"/>
</svg>
